<svg id="Camada_1" data-name="Camada 1" xmlns="http://www.w3.org/2000/svg" viewBox="0 0 1080 1080"><defs><style>.cls-1{fill:#fff;}</style></defs><path class="cls-1" d="M531.55,518.89,340.59,348c-2.54-2.22-64.86-57.89-51.72-141.66a89,89,0,0,1,14.81-41.8c12.77-19,39.08-41.67,91.9-41.67H542.31V155H395.58c-70,0-74.39,48.2-74.66,53.69l0,1.05-.17.9C309.93,277,359.8,322.12,361.93,324L553,494.94Z"/><path class="cls-1" d="M542.31,887.57H387.75c-26.78,0-50.93-11.81-69.83-34.13C282,811.06,278,750.57,308.26,709.61c22.75-30.79,38.61-46,39.28-46.58l.17-.16L491.65,530.14a16.06,16.06,0,1,1,21.77,23.61L369.6,686.38c-1,1-15.26,14.94-35.51,42.32-21.18,28.65-17.59,73.35,8.35,104,13,15.32,27.79,22.77,45.31,22.77H542.31a16.07,16.07,0,0,1,0,32.13Z"/><rect class="cls-1" x="531.65" y="494.85" width="12.46" height="32.13" transform="translate(-203.89 499.97) rotate(-42.68)"/><path class="cls-1" d="M578.22,486.92a16.07,16.07,0,0,1-10.72-28L710.91,330.57c.68-.6,59.35-53.44,48.54-119.9l-.17-1,0-1C759,203.23,754.62,155,684.59,155H537.87a16.07,16.07,0,1,1,0-32.13H684.59c52.83,0,79.14,22.66,91.91,41.67a88.93,88.93,0,0,1,14.8,41.81c13.08,83.78-56.12,145.64-59.08,148.24L588.93,482.83A16,16,0,0,1,578.22,486.92Z"/><rect class="cls-1" x="535.82" y="485.36" width="16.47" height="32.13" transform="translate(-195.74 490.46) rotate(-41.82)"/><path class="cls-1" d="M690.89,889.62h-1.28l-154.54-2.18.45-32.12,154.54,2.18h.87c17.14,0,31.79-7.25,44.77-22.13,26.36-30.25,30.58-74.89,9.81-103.84-19.8-27.58-33.86-41.76-34.92-42.82l-181.33-172,22.11-23.3L733,665.66c.65.64,16.3,16,38.62,47.13,29.7,41.39,24.79,101.81-11.69,143.68C741,878.17,717.16,889.62,690.89,889.62Z"/></svg>