<svg id="Camada_1" data-name="Camada 1" xmlns="http://www.w3.org/2000/svg" viewBox="0 0 1080 1080"><defs><style>.cls-1{fill:#1e1e1c;}</style></defs><path class="cls-1" d="M554,552.62l-191-170.85c-2.54-2.22-64.86-57.89-51.72-141.66a88.84,88.84,0,0,1,14.81-41.8c12.77-19,39.07-41.67,91.9-41.67H564.8v32.13H418.07c-70,0-74.39,48.19-74.66,53.69l0,1-.17.9c-10.79,66.35,39.08,111.45,41.2,113.34L575.46,528.68Z"/><path class="cls-1" d="M564.8,921.3H410.24c-26.78,0-50.93-11.8-69.83-34.13-35.89-42.37-40-102.86-9.67-143.83,22.76-30.78,38.62-45.94,39.28-46.57l.18-.16L514.13,563.87a16.06,16.06,0,1,1,21.78,23.62L392.09,720.12c-1,1-15.27,14.94-35.51,42.32-21.18,28.65-17.59,73.35,8.35,104,13,15.32,27.79,22.77,45.31,22.77H564.8a16.06,16.06,0,1,1,0,32.12Z"/><rect class="cls-1" x="554.14" y="528.59" width="12.46" height="32.13" transform="translate(-220.81 524.15) rotate(-42.68)"/><path class="cls-1" d="M600.71,520.66a16.07,16.07,0,0,1-10.72-28L733.4,364.31c.68-.6,59.35-53.44,48.54-119.9l-.17-1,0-1.05c-.26-5.36-4.63-53.55-74.66-53.55H560.36a16.07,16.07,0,1,1,0-32.13H707.08c52.83,0,79.14,22.66,91.91,41.67a88.93,88.93,0,0,1,14.8,41.81c13.08,83.78-56.12,145.64-59.08,148.24L611.42,516.56A16,16,0,0,1,600.71,520.66Z"/><rect class="cls-1" x="558.31" y="519.1" width="16.47" height="32.13" transform="translate(-212.51 514.05) rotate(-41.82)"/><path class="cls-1" d="M713.38,923.36H712.1l-154.54-2.18.45-32.12,154.54,2.17h.87c17.14,0,31.79-7.25,44.76-22.13,26.37-30.26,30.59-74.9,9.82-103.84-19.8-27.58-33.86-41.76-34.93-42.83l-181.32-172,22.11-23.31L755.48,699.4c.65.64,16.3,16,38.62,47.13,29.7,41.39,24.79,101.81-11.69,143.68C763.49,911.91,739.65,923.36,713.38,923.36Z"/></svg>