<svg id="Camada_1" data-name="Camada 1" xmlns="http://www.w3.org/2000/svg" viewBox="0 0 1080 1080"><defs><style>.cls-1{fill:#1d1d1b;}</style></defs><path class="cls-1" d="M403.56,350.86s66.18-58.83,163-53.92a214.45,214.45,0,0,1,77.33,19.11c2.41,1.09,5,2.25,7.81,3.44a168.21,168.21,0,0,0,113.79,6.87c24.81-7.29,56.23-18.12,84.9-32.68V576s-38.12,58.83-147.76,46.12c0,0-23.5-2.7-55.36-21-6.5-3.75-14.11-8.33-19.59-10.83-28.95-13.21-103-29.15-192.82,24.35L459,824.29a39.29,39.29,0,0,1-4.6,23.78c-2.84,5-7.11,9.92-13.48,12.44a24.55,24.55,0,0,1-16.9.11,36.36,36.36,0,0,1-21.71-19.44,33.38,33.38,0,0,1-2.67-9.45L329,313.45s-31.06-14.59-24.47-57.89a49.53,49.53,0,0,1,20.16-28.78c12.89-8.86,29.19-11,44.25-6.76,13.52,3.78,30.23,12.77,36.3,34.13,0,0,10.35,31.06-13.18,54.59l3.76,49.41S397.51,355.73,403.56,350.86Z"/><path class="cls-1" d="M432.5,867.56a31.92,31.92,0,0,1-10.3-1.74,41.65,41.65,0,0,1-24.93-22.33,39.08,39.08,0,0,1-3.12-11L323.89,316.89a53.6,53.6,0,0,1-14-12.81c-7-9.11-14.53-25.07-10.84-49.34a1.18,1.18,0,0,1,0-.2,54.9,54.9,0,0,1,22.44-32.29c13.93-9.57,31.73-12.31,48.85-7.53,14.52,4.06,33.24,13.91,40.08,37.83.84,2.61,10.07,33.42-12.77,58.22l2.71,35.54c3.06-2.63,19.33-16.11,45.91-29.19s69.32-28.27,120.51-25.68A219.32,219.32,0,0,1,646.15,311c2.57,1.16,5.16,2.31,7.71,3.4a163,163,0,0,0,110.07,6.64c32.08-9.43,60.33-20.3,84-32.3a5.49,5.49,0,0,1,8,4.9V576a5.5,5.5,0,0,1-.88,3c-.42.64-10.54,16-34.68,29.62-21.91,12.37-60.23,25.7-118.34,19-1-.12-25-3-57.47-21.76l-3.76-2.18c-5.49-3.19-11.16-6.49-15.36-8.41-9-4.1-33.93-13.52-71.15-12.35-37.83,1.2-76,12.84-113.51,34.63l23.69,206.11a44.44,44.44,0,0,1-5.27,27.11c-4,7.2-9.52,12.19-16.25,14.85A28.33,28.33,0,0,1,432.5,867.56Zm-122.58-611c-5.83,38.68,21.12,51.82,21.39,52a5.49,5.49,0,0,1,3.11,4.23L405.05,831a27.73,27.73,0,0,0,2.21,7.9,30.88,30.88,0,0,0,18.49,16.53,19,19,0,0,0,13.11,0c4.32-1.71,7.93-5.08,10.71-10a33.48,33.48,0,0,0,3.92-20.45l-24.1-209.67A5.49,5.49,0,0,1,432,609.9c40.11-23.91,81.11-36.69,121.86-38,39.54-1.26,66.36,8.91,76.05,13.33,4.71,2.15,10.62,5.59,16.33,8.91l3.72,2.16c30.34,17.48,53,20.33,53.26,20.36,54.75,6.34,90.59-5.89,111-17.27,18.25-10.16,27.8-21.48,30.6-25.16V302.52c-22.51,10.75-48.65,20.53-77.84,29.12a174.1,174.1,0,0,1-117.52-7.09c-2.61-1.12-5.27-2.29-7.9-3.48a208.21,208.21,0,0,0-75.35-18.64C517.59,300,477,314.34,451.51,326.83c-27.75,13.6-44.14,28-44.3,28.14l-.2.17a46.18,46.18,0,0,0-6.78,6.26,5.5,5.5,0,0,1-9.92-2.83l-3.76-49.41a5.5,5.5,0,0,1,1.59-4.31c20.75-20.75,12.22-47.83,11.84-49l-.07-.23c-4.35-15.32-15.27-25.53-32.48-30.33-14-3.91-28.43-1.72-39.66,6A44,44,0,0,0,309.92,256.52Zm93.64,94.34h0Z"/></svg>