<svg id="Camada_1" data-name="Camada 1" xmlns="http://www.w3.org/2000/svg" viewBox="0 0 1080 1080"><defs><style>.cls-1{fill:#fff;}</style></defs><path class="cls-1" d="M366.58,379.46s66.17-58.82,163-53.92a214.72,214.72,0,0,1,77.33,19.12c2.41,1.09,5,2.25,7.81,3.44A168.21,168.21,0,0,0,728.5,355c24.81-7.3,56.23-18.12,84.9-32.68V604.64s-38.12,58.82-147.76,46.12c0,0-23.5-2.7-55.36-21.06-6.5-3.74-14.11-8.33-19.59-10.83-29-13.2-103-29.15-192.82,24.36L422,852.89a39.31,39.31,0,0,1-4.6,23.79c-2.84,5-7.11,9.91-13.48,12.43a24.46,24.46,0,0,1-16.91.11,36.36,36.36,0,0,1-21.71-19.43,33.42,33.42,0,0,1-2.66-9.46L292,342.05s-31.06-14.59-24.47-57.88a49.51,49.51,0,0,1,20.15-28.78c12.9-8.86,29.19-11,44.26-6.76,13.52,3.77,30.23,12.76,36.29,34.13,0,0,10.36,31.06-13.17,54.59l3.76,49.41S360.53,384.33,366.58,379.46Z"/><path class="cls-1" d="M395.51,896.17a31.9,31.9,0,0,1-10.29-1.74,41.64,41.64,0,0,1-24.93-22.34,39,39,0,0,1-3.12-11L286.91,345.49a53.34,53.34,0,0,1-14-12.8c-7-9.11-14.53-25.07-10.84-49.35l0-.2a54.93,54.93,0,0,1,22.45-32.28c13.93-9.57,31.73-12.32,48.85-7.53,14.52,4,33.24,13.91,40.07,37.82.84,2.61,10.08,33.43-12.76,58.23l2.71,35.54c3.05-2.63,19.33-16.12,45.91-29.19s69.32-28.27,120.5-25.68a219,219,0,0,1,79.32,19.6c2.59,1.17,5.19,2.31,7.72,3.4A163,163,0,0,0,727,349.69c32.08-9.43,60.33-20.3,84-32.31a5.5,5.5,0,0,1,8,4.91V604.64a5.48,5.48,0,0,1-.89,3c-.41.65-10.54,16-34.67,29.62-21.91,12.37-60.23,25.7-118.34,19-1-.11-25-3-57.47-21.75l-3.76-2.18c-5.48-3.2-11.16-6.49-15.36-8.41-9-4.11-33.94-13.52-71.15-12.35-37.83,1.19-76,12.84-113.52,34.62l23.7,206.12a44.45,44.45,0,0,1-5.27,27.11c-4.05,7.19-9.52,12.19-16.25,14.85A28.34,28.34,0,0,1,395.51,896.17Zm-122.58-611c-5.76,38.35,20.31,51.41,21.42,51.95a5.55,5.55,0,0,1,3.09,4.22l70.63,518.28a27.66,27.66,0,0,0,2.21,7.89A30.91,30.91,0,0,0,388.77,884a19.1,19.1,0,0,0,13.11,0c4.32-1.71,7.92-5.08,10.71-10a33.59,33.59,0,0,0,3.92-20.46l-24.1-209.66a5.52,5.52,0,0,1,2.64-5.36c40.12-23.91,81.12-36.68,121.87-38,39.54-1.25,66.35,8.91,76.05,13.33,4.7,2.14,10.61,5.58,16.33,8.91l3.72,2.16c30.34,17.48,53,20.33,53.25,20.35C762.5,656.44,801.72,611,807.9,602.87V331.13c-22.51,10.75-48.65,20.53-77.85,29.11a174,174,0,0,1-117.52-7.09c-2.59-1.11-5.24-2.28-7.89-3.48A208.4,208.4,0,0,0,529.29,331c-48.68-2.47-89.27,11.9-114.76,24.39-27.75,13.61-44.14,28-44.3,28.15l-.21.17a45.61,45.61,0,0,0-6.77,6.26,5.5,5.5,0,0,1-9.92-2.83l-3.77-49.42a5.47,5.47,0,0,1,1.6-4.3c20.74-20.75,12.21-47.84,11.84-49l-.07-.22c-4.35-15.32-15.28-25.53-32.48-30.34-14-3.9-28.43-1.71-39.66,6A44.71,44.71,0,0,0,272.93,285.14Zm93.65,94.32h0Z"/></svg>