<svg id="Camada_1" data-name="Camada 1" xmlns="http://www.w3.org/2000/svg" viewBox="0 0 1080 1080"><defs><style>.cls-1{fill:#fff;}</style></defs><path class="cls-1" d="M562.49,984.94c-206.95,0-375.31-168.36-375.31-375.3S355.54,234.33,562.49,234.33s375.3,168.36,375.3,375.31S769.43,984.94,562.49,984.94Zm0-718.49c-189.24,0-343.19,154-343.19,343.19s154,343.18,343.19,343.18,343.19-154,343.19-343.18S751.72,266.45,562.49,266.45Z"/><path class="cls-1" d="M546.84,625.7a16.06,16.06,0,0,1-11.35-27.43L703.91,430.12a16.06,16.06,0,0,1,22.69,22.73L558.18,621A16,16,0,0,1,546.84,625.7Z"/><path class="cls-1" d="M562.49,266.45a16.06,16.06,0,0,1-16.06-16.06V124.07a16.06,16.06,0,1,1,32.12,0V250.39A16.06,16.06,0,0,1,562.49,266.45Z"/><path class="cls-1" d="M644,127.18H482.06a16.06,16.06,0,1,1,0-32.12H644a16.06,16.06,0,0,1,0,32.12Z"/><path class="cls-1" d="M811.69,367.23a16.06,16.06,0,0,1-11.28-27.49l59.44-58.64A16.06,16.06,0,1,1,882.4,304L823,362.61A16,16,0,0,1,811.69,367.23Z"/></svg>