<svg id="Camada_1" data-name="Camada 1" xmlns="http://www.w3.org/2000/svg" viewBox="0 0 1080 1080"><defs><style>.cls-1{fill:#1e1e1c;}</style></defs><path class="cls-1" d="M537.12,984.52c-206.94,0-375.3-168.36-375.3-375.3s168.36-375.31,375.3-375.31S912.43,402.27,912.43,609.22,744.07,984.52,537.12,984.52Zm0-718.49c-189.23,0-343.18,154-343.18,343.19s154,343.18,343.18,343.18S880.31,798.45,880.31,609.22,726.36,266,537.12,266Z"/><path class="cls-1" d="M521.47,625.27a16.06,16.06,0,0,1-11.35-27.42L678.54,429.7a16.06,16.06,0,1,1,22.7,22.73L532.82,620.58A16,16,0,0,1,521.47,625.27Z"/><path class="cls-1" d="M537.12,266A16.06,16.06,0,0,1,521.06,250V123.65a16.06,16.06,0,1,1,32.12,0V250A16.06,16.06,0,0,1,537.12,266Z"/><path class="cls-1" d="M618.64,126.75H456.69a16.06,16.06,0,0,1,0-32.12h162a16.06,16.06,0,1,1,0,32.12Z"/><path class="cls-1" d="M786.32,366.81a16.06,16.06,0,0,1-11.27-27.49l59.43-58.64A16.06,16.06,0,0,1,857,303.55L797.6,362.18A16,16,0,0,1,786.32,366.81Z"/></svg>