<svg id="Camada_1" data-name="Camada 1" xmlns="http://www.w3.org/2000/svg" viewBox="0 0 1080 1080"><defs><style>.cls-1{fill:#1e1e1c;}</style></defs><path class="cls-1" d="M569.54,923.36c-211.38,0-383.35-172-383.35-383.36s172-383.36,383.35-383.36S952.9,328.61,952.9,540,780.93,923.36,569.54,923.36Zm0-733.91C376.25,189.45,219,346.71,219,540S376.25,890.55,569.54,890.55,920.09,733.29,920.09,540,762.84,189.45,569.54,189.45Z"/><path class="cls-1" d="M468.47,905.82C406,817,367.09,723.16,352.85,627c-11.41-77.06-7.08-155.67,12.87-233.66,33.92-132.58,100.57-216.49,103.39-220l25.58,20.55h0c-1.09,1.36-65.66,83.23-97.5,208.87-42.61,168.09-9.59,331,98.13,484.19Z"/><path class="cls-1" d="M632.13,914.86,608.59,892C732,765,775.61,609.18,738.35,429c-28.1-135.81-94.11-235.29-94.77-236.28l27.23-18.3c2.84,4.22,69.86,105,99.44,246.84,17.46,83.75,18,164.3,1.73,239.41C751.55,754.82,704.49,840.33,632.13,914.86Z"/><rect class="cls-1" x="202.59" y="523.59" width="733.9" height="32.81"/><path class="cls-1" d="M560.94,363.49a635,635,0,0,1-109.2-9.33c-96.9-16.94-154.9-50.46-157.33-51.88L311,274c.56.32,56.39,32.38,147.91,48.14,84.24,14.5,217,17.77,371-49l13.06,30.09C736.76,349.22,640,363.49,560.94,363.49Z"/><path class="cls-1" d="M840.13,795.41c-168.81-74.81-306.19-71.22-391.71-55C355.68,757.91,302.06,793.63,301.53,794l-18.45-27.13c2.34-1.6,58.57-39.35,157.39-58.38,90.46-17.42,235.54-21.69,412.95,56.94Z"/><rect class="cls-1" x="553.14" y="173.05" width="32.81" height="733.91"/></svg>