<svg id="Camada_1" data-name="Camada 1" xmlns="http://www.w3.org/2000/svg" viewBox="0 0 1080 1080"><defs><style>.cls-1{fill:#fff;}</style></defs><path class="cls-1" d="M553.53,904c-211.39,0-383.36-172-383.36-383.35s172-383.36,383.36-383.36,383.35,172,383.35,383.36S764.91,904,553.53,904Zm0-733.9C360.23,170.11,203,327.36,203,520.66S360.23,871.21,553.53,871.21,904.08,714,904.08,520.66,746.82,170.11,553.53,170.11Z"/><path class="cls-1" d="M452.46,886.48C390,797.63,351.08,703.82,336.84,607.65,325.43,530.59,329.76,452,349.71,374c33.91-132.58,100.56-216.5,103.38-220l25.58,20.55h0c-1.09,1.36-65.65,83.22-97.5,208.86-42.6,168.1-9.59,331,98.13,484.2Z"/><path class="cls-1" d="M616.11,895.52l-23.54-22.86c123.36-127,167-282.82,129.76-463-28.09-135.82-94.1-235.3-94.77-236.28l27.23-18.31c2.84,4.22,69.87,105,99.44,246.85,17.46,83.75,18,164.29,1.74,239.41C735.53,735.47,688.48,821,616.11,895.52Z"/><rect class="cls-1" x="186.58" y="504.25" width="733.9" height="32.81"/><path class="cls-1" d="M544.93,344.15a634.89,634.89,0,0,1-109.21-9.34c-96.89-16.94-154.9-50.46-157.32-51.87L295,254.62c.55.32,56.38,32.38,147.91,48.14,84.23,14.5,217,17.77,371-49l13,30.1C720.74,329.88,624,344.15,544.93,344.15Z"/><path class="cls-1" d="M824.11,776.07C655.3,701.26,517.92,704.85,432.4,721,339.67,738.56,286,774.29,285.51,774.64l-18.45-27.13c2.35-1.59,58.58-39.34,157.39-58.37,90.47-17.43,235.54-21.69,413,56.94Z"/><rect class="cls-1" x="537.12" y="153.7" width="32.81" height="733.91"/></svg>