<svg id="Camada_1" data-name="Camada 1" xmlns="http://www.w3.org/2000/svg" viewBox="0 0 1080 1080"><defs><style>.cls-1{fill:#1e1e1c;}</style></defs><title>tumat</title><path class="cls-1" d="M523.86,941c-134.58,0-259.53-70.86-327.76-186.52-3-5.07-6-10.3-8.83-15.54a409.35,409.35,0,0,1-43.05-119.5,394.78,394.78,0,0,1-3.66-127c11.32-84.32,47.32-149.36,107-193.3,49.28-36.28,115.81-57.94,192.4-62.62,57.34-3.5,99.92,3.56,101.71,3.86a16.5,16.5,0,0,1-5.51,32.54c-.81-.14-41.56-6.78-95.06-3.4-48.76,3.07-118.56,15.33-174.11,56.3-52.1,38.43-83.62,96-93.7,171-10.42,77.6,4.43,155.85,42.95,226.29,2.69,4.92,5.48,9.83,8.3,14.6,63.7,108,181.61,173.18,307.63,170.2l1.9-.05a16.5,16.5,0,1,1,.89,33l-2,.05C529.91,940.92,526.87,941,523.86,941Z"/><path class="cls-1" d="M550,941c-3,0-6,0-9.08-.1l-2-.05a16.5,16.5,0,1,1,.89-33l1.91.05c2.76.06,5.54.09,8.3.09,122.92,0,237-64.69,299.33-170.28,2.81-4.78,5.61-9.69,8.3-14.61,38.52-70.44,53.37-148.69,43-226.29C890.53,421.66,859,364.09,806.78,325.66c-107.36-79.06-267.42-53.07-269-52.8a16.5,16.5,0,0,1-5.51-32.54c1.78-.3,44.36-7.36,101.7-3.86,76.6,4.68,143.13,26.34,192.4,62.62,59.67,43.94,95.66,109,107,193.3a394.78,394.78,0,0,1-3.66,127,409.35,409.35,0,0,1-43,119.5c-2.86,5.24-5.83,10.47-8.83,15.54C809.56,870.09,684.6,941,550,941Z"/><path class="cls-1" d="M515,252.37c-41.67-10.54-181.8-48.55-215.11-90.91,0,0,74.16,146.15,194.13,137.42,0,0,66.47,3.41,45.75-28.94A41.33,41.33,0,0,0,515,252.37Z"/><path class="cls-1" d="M483.8,303.76c-24.63,0-49.06-6.27-72.77-18.68-21.52-11.27-42.48-27.6-62.29-48.54-33.6-35.52-52.06-71.53-52.83-73a4.5,4.5,0,0,1,7.55-4.82c32.38,41.16,171,78.78,212.69,89.33a45.69,45.69,0,0,1,27.45,19.5c5.25,8.21,6.14,15.44,2.63,21.49-9.18,15.8-46.59,14.65-52.12,14.39Q489,303.77,483.8,303.76ZM318.26,183.35a346.78,346.78,0,0,0,37.17,47.16c29.9,31.56,78.16,68.26,138.31,63.89a3.37,3.37,0,0,1,.55,0c14.43.73,39.17-1.32,44.16-9.91,1.68-2.9.86-7-2.43-12.11a36.68,36.68,0,0,0-22.08-15.64C477.89,247.62,370.6,218.52,318.26,183.35Z"/><path class="cls-1" d="M535.71,243.64c41.68-10.54,181.8-48.55,215.12-90.9,0,0-74.17,146.14-194.14,137.42,0,0-66.47,3.41-45.74-28.94A41.29,41.29,0,0,1,535.71,243.64Z"/><path class="cls-1" d="M567,295c-3.44,0-6.87-.12-10.31-.36-5.53.26-42.94,1.41-52.12-14.4-3.51-6-2.62-13.27,2.64-21.48a45.61,45.61,0,0,1,27.45-19.51h0c41.7-10.55,180.3-48.17,212.68-89.33a4.5,4.5,0,0,1,7.55,4.82c-.77,1.52-19.22,37.53-52.82,73-19.82,20.94-40.78,37.28-62.3,48.54C616,288.77,591.58,295,567,295Zm-10.26-9.37H557c60.22,4.38,108.54-32.41,138.47-64a346.85,346.85,0,0,0,37-47C680.17,209.79,572.86,238.89,536.81,248h0a36.71,36.71,0,0,0-22.08,15.63c-3.29,5.14-4.1,9.22-2.42,12.11,5,8.6,29.73,10.65,44.15,9.91Zm-21-42h0Z"/><path class="cls-1" d="M557.29,277.18c32,14.34,140.9,60.94,183.66,50.7,0,0-121.42,56-193.77-10.32,0,0-44.26-31.46-14.62-41.67A33.64,33.64,0,0,1,557.29,277.18Z"/><path class="cls-1" d="M639.8,354.43c-38.67,0-71.27-11.31-95.46-33.37-5.3-3.8-28.51-21.37-26.36-36.35.6-4.11,3.35-9.71,13.11-13.08a38.06,38.06,0,0,1,28,1.44c32,14.33,139.46,60.32,180.76,50.43a4.5,4.5,0,0,1,2.93,8.46,282.69,282.69,0,0,1-71,20.07A222.91,222.91,0,0,1,639.8,354.43Zm-96.61-75.81a28.09,28.09,0,0,0-9.17,1.52c-4.39,1.52-6.79,3.48-7.13,5.86-1,7.25,12.76,20.67,22.9,27.89.15.11.29.23.43.35,36,33,85.19,33.94,120.11,28.92a280,280,0,0,0,43.51-10c-49.4-5.12-124.09-36.46-158.39-51.84h0A30,30,0,0,0,543.19,278.62Z"/><path class="cls-1" d="M504.86,258.38C475.44,289.73,374.3,393.9,321.11,402.52c0,0,163.78,5.93,214.27-103.25,0,0,35.19-56.49-3.15-54A41.32,41.32,0,0,0,504.86,258.38Z"/><path class="cls-1" d="M325.92,407.08c-2.92,0-4.65-.05-5-.06a4.5,4.5,0,0,1-.55-8.94c51.69-8.38,151.75-111.4,181.19-142.78h0a45.67,45.67,0,0,1,30.36-14.56c9.73-.62,16.48,2.1,20.07,8.11,9.38,15.69-9.75,47.84-12.66,52.56-11.88,25.57-30.81,47-56.27,63.81-20.29,13.37-44.73,23.79-72.65,31A354,354,0,0,1,325.92,407.08ZM508.14,261.46c-25.44,27.12-102.88,106.88-159,135.63a346.71,346.71,0,0,0,59.27-9.67c42.09-10.87,97.58-35.31,122.89-90,.08-.17.17-.33.26-.49,7.63-12.26,17.83-34.89,12.72-43.43-1.72-2.87-5.69-4.13-11.77-3.74a36.69,36.69,0,0,0-24.37,11.74Z"/><path class="cls-1" d="M498.07,239.64c33.84-26.52,146.56-118,159.87-170.24,0,0-8.62,163.66-121.85,204.27,0,0-59.39,30-53.54-7.94A41.32,41.32,0,0,1,498.07,239.64Z"/><path class="cls-1" d="M497.93,289.4c-5.18,0-9.92-1-13.54-3.64-5.66-4.11-7.78-11.08-6.29-20.71a45.6,45.6,0,0,1,17.2-29h0C529.16,209.56,640.65,119,653.58,68.29a4.5,4.5,0,0,1,8.86,1.35c-.09,1.7-2.38,42.1-18.72,88.17-9.64,27.18-22.19,50.6-37.3,69.61-19,23.88-42,40.83-68.55,50.4C534.13,279.69,514,289.4,497.93,289.4Zm2.92-46.22A36.68,36.68,0,0,0,487,266.42c-.93,6,0,10.09,2.69,12.05,8,5.84,31.49-2.3,44.38-8.81a3.74,3.74,0,0,1,.51-.22C591.33,249.08,620.6,196,635.16,155A345.92,345.92,0,0,0,650,96.84c-33.6,53.36-119.93,123.41-149.19,146.34Z"/><path class="cls-1" d="M509.13,249c-8.51-29.19-35.56-128.24-21.68-163.73,0,0-62.52,97.6-14.2,167.61,0,0,21.75,41.75,34,17.52A29.27,29.27,0,0,0,509.13,249Z"/><path class="cls-1" d="M497.92,282.44c-13.41,0-25.84-22.13-28.53-27.25-20.41-29.75-24.39-69-11.48-113.64a245.84,245.84,0,0,1,25.75-58.73,4.5,4.5,0,0,1,8,4.07C481,114,496,187.74,513.45,247.72a33.58,33.58,0,0,1-2.15,24.69c-4.18,8.25-9.55,10-13.32,10ZM479.06,110.73a239.31,239.31,0,0,0-12.57,33.54c-12.26,42.54-8.74,78.22,10.46,106a3.31,3.31,0,0,1,.29.47c4.77,9.15,14.64,22.66,20.67,22.66h0c1.84,0,3.64-1.73,5.35-5.1a24.61,24.61,0,0,0,1.53-18.1h0C495.88,219.62,478.43,154,479.06,110.73Z"/><path class="cls-1" d="M779.93,733.06a16.49,16.49,0,0,1-13.11-26.49c32.65-42.87,46.93-93.79,42.45-151.35-3.4-43.8-17-75.22-17.1-75.53a16.5,16.5,0,0,1,30.19-13.31c.64,1.44,15.69,36,19.71,85,5.37,65.45-11.57,126-49,175.15A16.46,16.46,0,0,1,779.93,733.06Z"/></svg>