<svg id="Camada_1" data-name="Camada 1" xmlns="http://www.w3.org/2000/svg" viewBox="0 0 1080 1080"><defs><style>.cls-1{fill:#1e1e1c;}</style></defs><path class="cls-1" d="M562.49,923.36c-211.38,0-383.36-172-383.36-383.36s172-383.36,383.36-383.36S945.85,328.61,945.85,540,773.87,923.36,562.49,923.36Zm0-733.91C369.2,189.45,211.94,346.71,211.94,540S369.2,890.55,562.49,890.55,913,733.29,913,540,755.78,189.45,562.49,189.45Z"/><path class="cls-1" d="M677.29,598.22a16.68,16.68,0,0,1-4.8-.72L539.05,556.69A16.41,16.41,0,0,1,527.45,541V317.14a16.4,16.4,0,1,1,32.8,0V528.87l121.83,37.25a16.41,16.41,0,0,1-4.79,32.1Z"/></svg>