<svg id="Camada_1" data-name="Camada 1" xmlns="http://www.w3.org/2000/svg" viewBox="0 0 1080 1080"><defs><style>.cls-1{fill:#fff;}</style></defs><path class="cls-1" d="M546.47,904c-211.38,0-383.35-172-383.35-383.35s172-383.36,383.35-383.36,383.36,172,383.36,383.36S757.86,904,546.47,904Zm0-733.9c-193.29,0-350.55,157.25-350.55,350.55S353.18,871.21,546.47,871.21,897,714,897,520.66,739.77,170.11,546.47,170.11Z"/><path class="cls-1" d="M661.27,578.87a16.39,16.39,0,0,1-4.8-.72L523,537.35a16.41,16.41,0,0,1-11.61-15.69V297.8a16.41,16.41,0,1,1,32.81,0V509.52l121.83,37.26a16.4,16.4,0,0,1-4.8,32.09Z"/></svg>